<svg xmlns="http://www.w3.org/2000/svg" viewBox="0 0 468 468" id="check-body-temperature">
  <path fill="#29b6f6" d="M182.722 463H57.663c-31.133 0-55.395-26.8-52.086-57.537L16.351 305.38c5.245-48.724 46.654-85.678 96.007-85.678 53.325 0 96.554 42.921 96.554 95.866v121.427c.001 14.362-11.726 26.005-26.19 26.005z"></path>
  <path fill="#00aae5" d="M23.575 405.463 34.349 305.38c4.922-45.727 41.697-81.083 86.996-85.261a98.516 98.516 0 0 0-8.987-.417c-49.353 0-90.762 36.954-96.007 85.678L5.577 405.463C2.268 436.2 26.53 463 57.663 463h17.998c-31.133 0-55.395-26.8-52.086-57.537z"></path>
  <path fill="#fdd2b5" d="M125.304 263.331c-16.781.028-30.362-13.478-30.335-30.165l.091-54.476 56.556-.093-.098 58.666c-.023 14.373-11.76 26.044-26.214 26.068z"></path>
  <path fill="#f9b995" d="m111.222 227.815.082-49.151-16.244.027-.091 54.476c-.028 16.687 13.553 30.193 30.335 30.165a26.222 26.222 0 0 0 15.877-5.36c-16.606-.175-29.986-13.595-29.959-30.157z"></path>
  <ellipse cx="59.316" cy="199.631" fill="#e0e0e0" rx="54.316" ry="54.98"></ellipse>
  <path fill="#c9c9c9" d="M23 207.628c0-30.364 24.318-54.98 54.315-54.98 4.298 0 8.474.521 12.485 1.476-8.692-5.978-19.184-9.473-30.485-9.473C29.318 144.652 5 169.267 5 199.631c0 26.013 17.854 47.792 41.831 53.503C32.449 243.244 23 226.554 23 207.628z"></path>
  <path fill="#fdd2b5" d="m230.977 105.912-17.952-19.516.011-2.174c.23-43.633-35.334-79.084-79.306-79.052l-2.065.001c-45.666.033-82.37 36.494-82.349 81.408.008 17.946.009 36.663.006 53.656-.006 33.853 27.636 61.262 61.752 61.238l65.676-.021c22.111-.007 40.022-17.946 39.987-40.049l-.057-36.074 12.473-7.339c4.33-2.546 5.213-8.394 1.824-12.078z"></path>
  <path fill="#333" d="M189.164 118.571c-.018 4.316-2.956 7.826-6.562 7.84-3.607.014-6.516-3.473-6.499-7.79.018-4.316 2.956-7.826 6.562-7.84 3.607-.013 6.517 3.474 6.499 7.79z"></path>
  <path fill="#eaeaea" d="M168.425 100.913a3.75 3.75 0 0 1-2.582-6.471l.295-.28c9.008-8.543 22.966-8.403 31.777.315a3.75 3.75 0 0 1-5.275 5.332c-5.817-5.758-15.39-5.85-21.34-.206l-.295.28a3.736 3.736 0 0 1-2.58 1.03z"></path>
  <path fill="#f9b995" d="M194.275 76.839h-21.641a2 2 0 0 1 0-4h21.641a2 2 0 0 1 0 4z"></path>
  <path fill="#abe1f4" d="m216.737 161.404-.035-22.182h-73.409v62.245l33.456-.014c22.112-.008 40.023-17.946 39.988-40.049z"></path>
  <path fill="#91d3e2" d="M163.293 139.221h-20v62.245l20-.006z"></path>
  <path fill="#fff" d="m143.293 193.469-46.82-31.358"></path>
  <path fill="#e0e0e0" d="m96.487 155.661-6.091-4.881c-9.01-7.221-9.702-20.604-1.486-28.746 7.591-7.524 19.865-7.597 27.506-.165l4.207 4.093 2.846-3.46c6.171-7.501 6.613-18.127 1.085-26.074a21.606 21.606 0 0 1-3.873-12.369c.017-12.033 9.873-21.801 22.015-21.818l77.563-.108C209.99 28.997 178.87 4.949 142.034 5l-10.591.015c-45.253.063-81.989 36.47-82.052 81.318l-.076 53.803c-.041 28.849 20.036 53.003 47.109 59.495l.063-43.97z"></path>
  <path fill="#c9c9c9" d="m67.238 136.98.076-53.803c.052-36.869 24.896-68.014 58.874-77.971-42.805 2.747-76.736 38.03-76.797 81.127l-.076 53.803c-.041 28.849 20.036 53.003 47.109 59.495l.015-10.598c-17.552-10.788-29.232-30.05-29.201-52.053z"></path>
  <path fill="#00aae5" d="M125.182 463H79.617l-11.09-139.722c-1.568-19.756 14.047-36.653 33.873-36.653 19.826 0 35.441 16.897 33.873 36.653L125.182 463z"></path>
  <path fill="#009cc6" d="M111.399 287.828a34.053 34.053 0 0 0-9-1.203c-19.826 0-35.441 16.897-33.873 36.653L79.617 463h18l-11.09-139.722c-1.322-16.646 9.556-31.26 24.872-35.45z"></path>
  <path fill="#f7f7f7" d="M372.663 286.232h-62.939V108.383h-52.061a4 4 0 0 1-4-3.999V49.953a4 4 0 0 1 4-3.999h55c33.137 0 60 26.853 60 59.978v180.3z"></path>
  <path fill="#ededed" d="M309.725 286.232h14V104.384c0-5.521-4.477-9.996-10-9.996h-42.061a4 4 0 0 1-4-3.999V45.954h-10a4 4 0 0 0-4 3.999v54.432a4 4 0 0 0 4 3.999h52.061v177.848z"></path>
  <path fill="#ec407a" d="M257.663 45.954a4 4 0 0 0-4 3.999v54.432a4 4 0 0 0 4 3.999h22.371v-62.43h-22.371z"></path>
  <path fill="#d63c77" d="M253.663 104.384a4 4 0 0 0 4 3.999h22.371V93.388h-26.371v10.996z"></path>
  <path fill="#333" d="M316.322 71.173h-12.407a5 5 0 1 1 0-10h12.407a5 5 0 1 1 0 10zM316.322 93.164h-12.407a5 5 0 1 1 0-10h12.407a5 5 0 1 1 0 10z"></path>
  <path fill="#fdd2b5" d="m432.37 187.338-56.36-44.182a20.015 20.015 0 0 0-7.472-3.659l-47.819-11.999a19.999 19.999 0 0 0-19.388 5.639 61647.072 61647.072 0 0 1-27.005 28.485c-4.242 4.471-4.166 11.499.212 15.919l.204.206c4.357 4.399 11.419 4.347 15.733.023 11.973-13.474 25.594-28.807 25.594-28.807L290.938 177.3c-.148.166-.308.314-.463.47-4.632 5.214-9.019 10.15-12.273 13.811-3.272 3.681-3.796 9.045-1.267 13.346l.14.238c3.714 6.317 12.371 7.328 17.465 2.175 12.534-13.697 28.253-30.905 28.253-30.905l-27.928 30.59c-.103.113-.218.207-.325.315-3.15 3.442-6.102 6.666-8.549 9.336-3.833 4.182-4.055 10.525-.484 15.014l.179.225c4.05 5.092 11.463 5.642 16.222 1.481 12.606-13.983 29.169-32.368 29.169-32.368l-28.181 31.399c-.313.349-.645.669-.988.969-2.784 3.089-5.379 5.966-7.556 8.379-3.805 4.218-4.327 10.447-1.244 15.302l.165.26c4.34 6.835 13.973 7.723 19.49 1.797l15.882-17.056 14.841 7.647a105.24 105.24 0 0 0 62.309 10.738l28.769 17.755L463 196.109l-30.63-8.771z"></path>
  <path fill="#f9b995" d="m343.488 233.733-8.104-4.176a10.003 10.003 0 0 0-11.902 2.075l-10.717 11.51c-5.254 5.642-14.228 5.095-18.822-.87-3.419 4.2-3.799 10.137-.834 14.807l.165.26c4.342 6.834 13.974 7.721 19.492 1.795l15.88-17.054 14.841 7.647a105.24 105.24 0 0 0 62.309 10.738l28.769 17.755 5.525-15.954-31.557-16.375c-1.713-.889-3.648-1.283-5.567-1.076a105.245 105.245 0 0 1-59.478-11.082z"></path>
  <path fill="#ed4848" d="m249.455 308.676 4.738-8.032v-15.177c0-7.577 6.179-13.72 13.801-13.72h.012c7.622 0 13.801 6.143 13.801 13.72v15.177l4.738 8.032a88.653 88.653 0 0 1 12.308 45.052v78.6C298.854 449.268 285.04 463 268 463s-30.854-13.732-30.854-30.672v-78.6a88.654 88.654 0 0 1 12.309-45.052z"></path>
  <path fill="#cc4040" d="M255.146 432.328v-78.6a88.663 88.663 0 0 1 12.308-45.052l4.738-8.032v-15.177c0-4.158 1.868-7.876 4.807-10.392a13.782 13.782 0 0 0-8.994-3.327h-.012c-7.622 0-13.801 6.143-13.801 13.72v15.177l-4.738 8.032a88.653 88.653 0 0 0-12.308 45.052v78.6C237.146 449.268 250.96 463 268 463a31.02 31.02 0 0 0 9-1.33c-12.649-3.829-21.854-15.515-21.854-29.342z"></path>
  <path fill="#fff" d="M298.854 355.082v-1.354a88.66 88.66 0 0 0-12.308-45.051l-4.739-8.033v-15.177c0-7.577-6.179-13.72-13.801-13.72h-.012c-7.622 0-13.801 6.143-13.801 13.72v15.177l-4.738 8.032a88.66 88.66 0 0 0-12.308 45.053v1.353h61.707z"></path>
  <path fill="#333" d="M268 441.481a5 5 0 0 1-5-5v-54.895a5 5 0 1 1 10 0v54.895a5 5 0 0 1-5 5z"></path>
  <path fill="#333" d="m290.852 306.136-4.045-6.857v-13.812c0-10.322-8.434-18.72-18.813-18.72-10.367 0-18.801 8.397-18.801 18.72v13.812c-10.015 16.978-17.046 34.381-17.046 54.449v78.601c0 19.67 16.084 35.672 35.854 35.672s35.854-16.002 35.854-35.672v-78.601a93.755 93.755 0 0 0-13.003-47.592zm-37.091 5.08 4.738-8.032c.454-.77.693-1.646.693-2.54v-15.177c0-4.808 3.948-8.72 8.813-8.72 4.853 0 8.801 3.912 8.801 8.72v15.177c0 .894.239 1.771.693 2.54 8.689 14.729 15.5 29.469 16.263 46.898h-51.528c.598-13.624 4.594-27.113 11.527-38.866zM268 458c-14.256 0-25.854-11.517-25.854-25.672v-72.246h51.707v72.246C293.854 446.483 282.256 458 268 458zm-33.344-355.474-16.621-18.069.001-.209a83.41 83.41 0 0 0-1.686-17.11l3.917-.005c3.315-.004 5.749-3.315 4.769-6.48C213.913 24.768 179.48-.059 142.027 0l-10.591.015c-47.93.067-86.978 38.786-87.044 86.312l-.076 53.803c-.001.491.019.978.029 1.467C18.864 148.323 0 171.787 0 199.631c0 23.336 13.256 43.587 32.545 53.497-11.46 14.455-19.061 32.165-21.166 51.717L.606 404.928C-2.983 438.272 24.263 468 57.663 468h125.059c17.199 0 31.191-13.909 31.191-31.005V315.568c0-39.898-23.449-74.451-57.373-90.8l.03-18.31 20.181-.006c24.547-.008 45.025-20.505 44.986-45.057l-.053-33.209 10.004-5.886c6.888-4.051 8.409-13.86 2.968-19.774zM54.391 86.34c.059-42.026 34.627-76.266 77.058-76.325L142.041 10h.111c31.594 0 59.314 18.67 71.007 47.143l-70.469.097c-21.143.029-34.469 24.464-22.24 42.043 4.038 5.806 3.896 13.602-.256 19.286-9.58-9.245-25.204-9.602-34.803-.087-12.804 12.69-6.548 30.109 6.092 39.576l-.049 34.867c-22.176-8.01-37.152-28.89-37.119-52.783l.076-53.802zm63.841 120.131 28.338-.009-.051 30.792c-.02 11.604-9.54 21.059-21.223 21.077-10.507-.262-20.188-6.535-23.822-16.572 9.098-9.312 15.214-21.605 16.758-35.288zm-7.205-9.998c-3.251 0-6.457-.279-9.597-.81l.034-24.192 36.829 24.667v.326l-27.223.009h-.043zm27.266-12.371-36.812-24.655.005-3.779a4.996 4.996 0 0 0-1.874-3.908c-7.957-6.377-17.094-16.352-7.183-26.175 8.18-8.109 18.205-3.012 24.707 3.961a5.011 5.011 0 0 0 3.764 1.408 4.987 4.987 0 0 0 2.119-.62l15.274 11.395v42.373zM10 199.631c0-22.631 14.925-41.782 35.319-47.912 5.331 30.356 32.105 53.355 62.837 54.675-3.269 24.369-23.914 43.216-48.841 43.216C32.123 249.61 10 227.19 10 199.631zM84.236 458 73.511 322.883c-1.318-16.607 12.228-31.258 28.889-31.258 16.655 0 30.206 14.645 28.888 31.258L120.563 458H84.236zm119.677-142.432v121.427c0 11.582-9.506 21.005-21.191 21.005h-52.127l10.662-134.326c1.777-22.387-16.46-42.049-38.857-42.049s-40.634 19.663-38.857 42.049L74.205 458H57.663c-27.511 0-50.078-24.467-47.114-52.002l10.774-100.083a90.28 90.28 0 0 1 20.928-48.846c17.338 5.277 36.552 2.07 51.275-8.484 5.924 12.127 18.403 19.601 31.787 19.747 17.551-.029 31.676-14.906 31.208-32.33 28.229 15.494 47.392 45.347 47.392 79.566zm-2.399-129.391c-6.611 6.623-15.406 10.272-24.766 10.275l-28.455.009v-52.239h63.417l.027 17.189c.015 9.351-3.616 18.147-10.223 24.766zm26.502-74.552a2.837 2.837 0 0 1-1.399 2.057l-12.473 7.339a5 5 0 0 0-2.464 4.317l.014 8.884h-66.741l-15.497-11.563c5.44-8.896 5.261-20.379-.796-29.087-7.663-11.017.81-26.314 14.044-26.332l63.422-.088c1.465 6.296 2.019 12.76 1.899 19.216a5 5 0 0 0 1.32 3.412l17.952 19.517a7.51 7.51 0 0 1 .719 2.328zm239.421 82.178a4.998 4.998 0 0 0-3.06-2.501l-29.69-8.502c-18.868-14.791-37.171-31.179-57.023-44.613v-32.255c0-35.829-29.159-64.978-65-64.978h-55c-4.962 0-9 4.036-9 8.998v54.432c0 4.962 4.038 8.999 9 8.999h47.062v11.138a24.921 24.921 0 0 0-7.023 5.176 57415.945 57415.945 0 0 1-27.002 28.482c-6.14 6.468-6.014 16.518.29 22.884 1.763 1.743 3.924 3.232 6.266 4.057-5.953 6.095-9.373 14.274-4.633 22.336 1.895 3.337 4.924 5.932 8.542 7.229-4.401 5.969-4.306 14.164.435 20.125 1.946 2.513 4.571 4.441 7.583 5.474-3.921 5.753-4.118 13.453-.289 19.481 3.478 5.341 9.388 8.634 15.832 8.279v18.188a5 5 0 0 0 5 5h62.938a5 5 0 0 0 5-5v-20.706a110.226 110.226 0 0 0 27.011.122l27.266 16.827c2.706 1.67 6.32.358 7.351-2.619l28.434-82.111a5.012 5.012 0 0 0-.29-3.942zM258.663 50.954h16.371v52.429h-16.371V50.954zm26.371 52.429V50.954h27.629c30.327 0 55 24.663 55 54.978v28.191l-45.728-11.474a24.917 24.917 0 0 0-7.211-.713v-13.553a5 5 0 0 0-5-5h-24.69zm82.629 177.849h-52.938v-17.097c5.526-4.556 10.13-10.646 15-15.876 12.278 6.327 24.323 12.476 37.938 15.523v17.45zm64.22-10.543-23.46-14.479a5.004 5.004 0 0 0-3.296-.7c-27.432 3.71-50.469-5.652-74.189-17.875a4.999 4.999 0 0 0-5.95 1.037l-15.882 17.056c-3.481 3.741-9.074 2.501-11.776-1.33-1.885-2.968-1.589-6.694.736-9.271L334.8 204.37a5 5 0 0 0-7.436-6.687s-16.364 18.164-28.94 32.114c-2.856 2.302-6.772 1.4-9.002-1.218-2.034-2.558-1.926-6.143.256-8.523 2.418-2.637 36.809-40.248 36.809-40.248a5 5 0 0 0-7.384-6.743v.001l-.013.014c-.523.574-15.856 17.358-28.161 30.805-3.024 2.98-7.545 1.729-9.681-1.49-1.42-2.416-1.141-5.426.694-7.491l37.87-42.621a5 5 0 0 0-7.478-6.639l-25.484 28.684c-2.557 2.463-6.332 1.998-8.757-.304-2.474-2.498-2.535-6.434-.138-8.959 7.608-8.017 19.254-20.306 27.007-28.487a15.02 15.02 0 0 1 14.542-4.229l47.819 11.999a14.918 14.918 0 0 1 5.604 2.744l56.36 44.182a5.012 5.012 0 0 0 1.708.872l25.554 7.317-24.666 71.226z"></path>
</svg>
